<?xml version="1.0" encoding="UTF-8"?>
<svg id="Layer_1" data-name="Layer 1" xmlns="http://www.w3.org/2000/svg" viewBox="0 0 371.94 448.12">
  <defs>
    <style>
      .cls-1 {
        fill: none;
        stroke: #f2e5bd;
        stroke-miterlimit: 10;
        stroke-width: 8.49px;
      }

      .cls-2 {
        fill: #f2e5bd;
        stroke-width: 0px;
      }
    </style>
  </defs>
  <path class="cls-2" d="m160.39,42.58s-22.49,10.58-16.55,39.07c5.94,28.49,71.45,71.51,66.45,84.69-5,13.18-72.97,54.69-72.97,54.69,0,0-12.63,5.39-22.15,15.67-18.24,22-18.24,49.51-18.24,49.51,0,0,73.37,4.36,106.87-41.31,13.98-19.06-7.48-34.22-1.33-36.87s13.74,4.79,15.64,13c1.9,8.21-6.23,31.46-20.85,46.94-27.81,29.45-99.4,34.34-99.4,34.34-6.4,9.34-.93,33.41-.93,33.41,0,0,41.25,7.15,67.75,0,26.5-7.15,96.42-75.57,96.42-75.57,0,0,31.45-42.1,7.82-67.75s-45.6-49.51-45.6-49.51c0,0-41.34-42.04-41.37-50.93-.03-8.89,4.39-10.19,9.51-5.5s31.55,25.69,51.4,38.2c15.99,10.07,36.74,26.43,52.12,29.97,15.38,3.54,28.59-4.31,7.82-16.94s-40.46-26.02-53.81-33.94c-25.5-15.14-42.61-32.51-42.61-32.51,0,0-1.53-22.62-15.19-27.36s-30.8-1.28-30.8-1.28Z"/>
  <ellipse class="cls-1" cx="186.95" cy="223.18" rx="175.08" ry="214.42"/>
  <path class="cls-2" d="m177.06,67.43s35.78,44.1,48.11,59.2c12.33,15.09,36.53,31.97,49.59,34.99,13.06,3.02,13.06-3.77,13.06-3.77,0,0-45.67-28.24-59.62-40.74-13.95-12.5-51.13-49.67-51.13-49.67Z"/>
  <path class="cls-2" d="m150.84,338.13s2.84,18.96,0,20.24c-2.84,1.28-21.99,0-21.99,0l7.31,7.2-2.35,8.67s18.36-5.11,22.32-1.2c3.96,3.92,11.41,16.08,11.41,16.08,0,0-1.57-11.65,6.14-13.92,7.71-2.28,13.29-.95,13.29-.95,0,0-14.43-11.71-17.44-14.88s-4.83-23.64-4.83-23.64l-13.85,2.41Z"/>
  <path class="cls-2" d="m200.53,313.67s26.84,30.42,21.2,35.53l-14.59,13.22s14.14-.17,18.83,4.67,6.12,12.71,6.12,12.71c0,0,8.45-8.84,14.59-7.06,6.15,1.78,14.59,12.24,14.59,12.24,0,0,2.28-11.82,6.59-13.18s8.94-2.82,8.94-2.82l-44.72-25.89s-6.82-11.04-3.77-21.65l12.01-41.76-39.81,34Z"/>
</svg>