<?xml version="1.0" encoding="utf-8"?>
<!-- Generator: Adobe Illustrator 27.9.0, SVG Export Plug-In . SVG Version: 6.00 Build 0)  -->
<svg version="1.1" id="Layer_1" xmlns="http://www.w3.org/2000/svg" xmlns:xlink="http://www.w3.org/1999/xlink" x="0px" y="0px"
	 viewBox="0 0 504 648" style="enable-background:new 0 0 504 648;" xml:space="preserve">
<style type="text/css">
	.st0{fill:#F2E5BD;}
	.st1{fill:none;stroke:#F2E5BD;stroke-width:8.4866;stroke-miterlimit:10;}
</style>
<path class="st0" d="M210.9,116.1c0,0-22.5,10.6-16.6,39.1s71.5,71.5,66.5,84.7c-5,13.2-73,54.7-73,54.7s-12.6,5.4-22.2,15.7
	c-18.2,22-18.2,49.5-18.2,49.5s73.4,4.4,106.9-41.3c14-19.1-7.5-34.2-1.3-36.9c6.2-2.6,13.7,4.8,15.6,13c1.9,8.2-6.2,31.5-20.8,46.9
	c-27.8,29.4-99.4,34.3-99.4,34.3c-6.4,9.3-0.9,33.4-0.9,33.4s41.2,7.2,67.8,0s96.4-75.6,96.4-75.6s31.4-42.1,7.8-67.8
	s-45.6-49.5-45.6-49.5s-41.3-42-41.4-50.9c0-8.9,4.4-10.2,9.5-5.5c5.1,4.7,31.6,25.7,51.4,38.2c16,10.1,36.7,26.4,52.1,30
	s28.6-4.3,7.8-16.9c-20.8-12.6-40.5-26-53.8-33.9c-25.5-15.1-42.6-32.5-42.6-32.5s-1.5-22.6-15.2-27.4S210.9,116.1,210.9,116.1z"/>
<ellipse class="st1" cx="237.5" cy="296.7" rx="175.1" ry="214.4"/>
<path class="st0" d="M227.6,140.9c0,0,35.8,44.1,48.1,59.2c12.3,15.1,36.5,32,49.6,35s13.1-3.8,13.1-3.8s-45.7-28.2-59.6-40.7
	C264.8,178.1,227.6,140.9,227.6,140.9z"/>
<path class="st0" d="M201.4,411.6c0,0,2.8,19,0,20.2c-2.8,1.3-22,0-22,0l7.3,7.2l-2.3,8.7c0,0,18.4-5.1,22.3-1.2
	c4,3.9,11.4,16.1,11.4,16.1s-1.6-11.6,6.1-13.9c7.7-2.3,13.3-1,13.3-1s-14.4-11.7-17.4-14.9c-3-3.2-4.8-23.6-4.8-23.6L201.4,411.6z"
	/>
<path class="st0" d="M251.1,387.2c0,0,26.8,30.4,21.2,35.5c-5.6,5.1-14.6,13.2-14.6,13.2s14.1-0.2,18.8,4.7
	c4.7,4.8,6.1,12.7,6.1,12.7s8.4-8.8,14.6-7.1c6.1,1.8,14.6,12.2,14.6,12.2s2.3-11.8,6.6-13.2c4.3-1.4,8.9-2.8,8.9-2.8l-44.7-25.9
	c0,0-6.8-11-3.8-21.7c3.1-10.6,12-41.8,12-41.8L251.1,387.2z"/>
</svg>
